<mxfile host="app.diagrams.net" agent="Mozilla/5.0 (Windows NT 10.0; Win64; x64) AppleWebKit/537.36 (KHTML, like Gecko) Chrome/141.0.0.0 Safari/537.36" version="28.2.5">
  <diagram name="第 1 页" id="4y0pj5CdvZ8wGrKksJG-">
    <mxGraphModel dx="3473" dy="1890" grid="1" gridSize="10" guides="1" tooltips="1" connect="1" arrows="1" fold="1" page="1" pageScale="1" pageWidth="827" pageHeight="1169" math="0" shadow="0">
      <root>
        <mxCell id="0" />
        <mxCell id="1" parent="0" />
        <mxCell id="CaIP_O6BYfi-pAsgIVp_-24" value="" style="rounded=0;whiteSpace=wrap;html=1;" vertex="1" parent="1">
          <mxGeometry x="1070" y="250" width="1180" height="1030" as="geometry" />
        </mxCell>
        <mxCell id="CaIP_O6BYfi-pAsgIVp_-3" value="&lt;font style=&quot;font-size: 65px;&quot;&gt;DRAM&lt;/font&gt;" style="rounded=0;whiteSpace=wrap;html=1;rotation=-90;" vertex="1" parent="1">
          <mxGeometry x="-140" y="741.3" width="620" height="170" as="geometry" />
        </mxCell>
        <mxCell id="CaIP_O6BYfi-pAsgIVp_-5" value="" style="endArrow=classic;html=1;rounded=0;exitX=0.865;exitY=1;exitDx=0;exitDy=0;exitPerimeter=0;" edge="1" parent="1" source="CaIP_O6BYfi-pAsgIVp_-3">
          <mxGeometry width="50" height="50" relative="1" as="geometry">
            <mxPoint x="300" y="651.3" as="sourcePoint" />
            <mxPoint x="430" y="601.3" as="targetPoint" />
          </mxGeometry>
        </mxCell>
        <mxCell id="CaIP_O6BYfi-pAsgIVp_-6" value="" style="rounded=0;whiteSpace=wrap;html=1;" vertex="1" parent="1">
          <mxGeometry x="790" y="260" width="210" height="970" as="geometry" />
        </mxCell>
        <mxCell id="CaIP_O6BYfi-pAsgIVp_-9" value="&lt;font style=&quot;font-size: 24px;&quot;&gt;PE(0,0)&lt;/font&gt;" style="whiteSpace=wrap;html=1;aspect=fixed;flipV=0;flipH=0;fillColor=#dae8fc;strokeColor=#6c8ebf;" vertex="1" parent="1">
          <mxGeometry x="1180" y="320" width="150" height="150" as="geometry" />
        </mxCell>
        <mxCell id="CaIP_O6BYfi-pAsgIVp_-10" value="&lt;span style=&quot;font-size: 24px;&quot;&gt;PE (31,0)&amp;nbsp;&lt;/span&gt;" style="whiteSpace=wrap;html=1;aspect=fixed;flipV=0;flipH=0;fillColor=#dae8fc;strokeColor=#6c8ebf;" vertex="1" parent="1">
          <mxGeometry x="1180" y="1000" width="150" height="150" as="geometry" />
        </mxCell>
        <mxCell id="CaIP_O6BYfi-pAsgIVp_-11" value="" style="whiteSpace=wrap;html=1;aspect=fixed;flipV=0;flipH=0;fillColor=#dae8fc;strokeColor=#6c8ebf;" vertex="1" parent="1">
          <mxGeometry x="1180" y="773" width="150" height="150" as="geometry" />
        </mxCell>
        <mxCell id="CaIP_O6BYfi-pAsgIVp_-12" value="" style="whiteSpace=wrap;html=1;aspect=fixed;flipV=0;flipH=0;fillColor=#dae8fc;strokeColor=#6c8ebf;" vertex="1" parent="1">
          <mxGeometry x="1180" y="547" width="150" height="150" as="geometry" />
        </mxCell>
        <mxCell id="CaIP_O6BYfi-pAsgIVp_-13" value="" style="whiteSpace=wrap;html=1;aspect=fixed;flipV=1;fillColor=#dae8fc;strokeColor=#6c8ebf;" vertex="1" parent="1">
          <mxGeometry x="1388" y="320" width="150" height="150" as="geometry" />
        </mxCell>
        <mxCell id="CaIP_O6BYfi-pAsgIVp_-14" value="" style="whiteSpace=wrap;html=1;aspect=fixed;flipV=1;fillColor=#dae8fc;strokeColor=#6c8ebf;" vertex="1" parent="1">
          <mxGeometry x="1595" y="320" width="150" height="150" as="geometry" />
        </mxCell>
        <mxCell id="CaIP_O6BYfi-pAsgIVp_-15" value="" style="whiteSpace=wrap;html=1;aspect=fixed;flipV=1;fillColor=#dae8fc;strokeColor=#6c8ebf;" vertex="1" parent="1">
          <mxGeometry x="1803" y="320" width="150" height="150" as="geometry" />
        </mxCell>
        <mxCell id="CaIP_O6BYfi-pAsgIVp_-16" value="" style="whiteSpace=wrap;html=1;aspect=fixed;flipV=1;fillColor=#dae8fc;strokeColor=#6c8ebf;" vertex="1" parent="1">
          <mxGeometry x="2010" y="320" width="150" height="150" as="geometry" />
        </mxCell>
        <mxCell id="CaIP_O6BYfi-pAsgIVp_-18" value="&lt;font style=&quot;font-size: 24px;&quot;&gt;PE (31,31)&amp;nbsp;&lt;/font&gt;" style="whiteSpace=wrap;html=1;aspect=fixed;flipV=1;fillColor=#dae8fc;strokeColor=#6c8ebf;" vertex="1" parent="1">
          <mxGeometry x="2010" y="1000" width="150" height="150" as="geometry" />
        </mxCell>
        <mxCell id="CaIP_O6BYfi-pAsgIVp_-25" value="" style="rounded=0;whiteSpace=wrap;html=1;" vertex="1" parent="1">
          <mxGeometry x="1090" y="20" width="1200" height="120" as="geometry" />
        </mxCell>
        <mxCell id="CaIP_O6BYfi-pAsgIVp_-27" value="" style="endArrow=classic;html=1;rounded=0;entryX=0.5;entryY=0;entryDx=0;entryDy=0;" edge="1" parent="1" target="CaIP_O6BYfi-pAsgIVp_-9">
          <mxGeometry width="50" height="50" relative="1" as="geometry">
            <mxPoint x="1255" y="140" as="sourcePoint" />
            <mxPoint x="1250" y="160" as="targetPoint" />
          </mxGeometry>
        </mxCell>
        <mxCell id="CaIP_O6BYfi-pAsgIVp_-28" value="" style="endArrow=classic;html=1;rounded=0;entryX=0.5;entryY=0;entryDx=0;entryDy=0;" edge="1" parent="1">
          <mxGeometry width="50" height="50" relative="1" as="geometry">
            <mxPoint x="1462.44" y="140" as="sourcePoint" />
            <mxPoint x="1462.44" y="320" as="targetPoint" />
          </mxGeometry>
        </mxCell>
        <mxCell id="CaIP_O6BYfi-pAsgIVp_-29" value="" style="endArrow=classic;html=1;rounded=0;entryX=0.5;entryY=0;entryDx=0;entryDy=0;" edge="1" parent="1">
          <mxGeometry width="50" height="50" relative="1" as="geometry">
            <mxPoint x="1669.0900000000001" y="140" as="sourcePoint" />
            <mxPoint x="1669.0900000000001" y="320" as="targetPoint" />
          </mxGeometry>
        </mxCell>
        <mxCell id="CaIP_O6BYfi-pAsgIVp_-30" value="" style="endArrow=classic;html=1;rounded=0;entryX=0.5;entryY=0;entryDx=0;entryDy=0;" edge="1" parent="1">
          <mxGeometry width="50" height="50" relative="1" as="geometry">
            <mxPoint x="1877.4700000000003" y="140" as="sourcePoint" />
            <mxPoint x="1877.4700000000003" y="320" as="targetPoint" />
          </mxGeometry>
        </mxCell>
        <mxCell id="CaIP_O6BYfi-pAsgIVp_-31" value="" style="endArrow=classic;html=1;rounded=0;entryX=0.5;entryY=0;entryDx=0;entryDy=0;" edge="1" parent="1">
          <mxGeometry width="50" height="50" relative="1" as="geometry">
            <mxPoint x="2084.4700000000003" y="140" as="sourcePoint" />
            <mxPoint x="2084.4700000000003" y="320" as="targetPoint" />
          </mxGeometry>
        </mxCell>
        <mxCell id="CaIP_O6BYfi-pAsgIVp_-33" value="" style="endArrow=classic;html=1;rounded=0;entryX=0.5;entryY=0;entryDx=0;entryDy=0;" edge="1" parent="1">
          <mxGeometry width="50" height="50" relative="1" as="geometry">
            <mxPoint x="1000" y="1074.41" as="sourcePoint" />
            <mxPoint x="1180" y="1074.41" as="targetPoint" />
          </mxGeometry>
        </mxCell>
        <mxCell id="CaIP_O6BYfi-pAsgIVp_-34" value="" style="endArrow=classic;html=1;rounded=0;entryX=0.5;entryY=0;entryDx=0;entryDy=0;" edge="1" parent="1">
          <mxGeometry width="50" height="50" relative="1" as="geometry">
            <mxPoint x="1000" y="847.41" as="sourcePoint" />
            <mxPoint x="1180" y="847.41" as="targetPoint" />
          </mxGeometry>
        </mxCell>
        <mxCell id="CaIP_O6BYfi-pAsgIVp_-35" value="" style="endArrow=classic;html=1;rounded=0;entryX=0.5;entryY=0;entryDx=0;entryDy=0;" edge="1" parent="1">
          <mxGeometry width="50" height="50" relative="1" as="geometry">
            <mxPoint x="1000" y="621.41" as="sourcePoint" />
            <mxPoint x="1180" y="621.41" as="targetPoint" />
          </mxGeometry>
        </mxCell>
        <mxCell id="CaIP_O6BYfi-pAsgIVp_-36" value="" style="endArrow=classic;html=1;rounded=0;entryX=0.5;entryY=0;entryDx=0;entryDy=0;" edge="1" parent="1">
          <mxGeometry width="50" height="50" relative="1" as="geometry">
            <mxPoint x="1000" y="394.41" as="sourcePoint" />
            <mxPoint x="1180" y="394.41" as="targetPoint" />
          </mxGeometry>
        </mxCell>
        <mxCell id="CaIP_O6BYfi-pAsgIVp_-38" value="&lt;span style=&quot;font-size: 65px;&quot;&gt;im2col&lt;/span&gt;" style="rounded=0;whiteSpace=wrap;html=1;" vertex="1" parent="1">
          <mxGeometry x="430" y="375" width="220" height="780" as="geometry" />
        </mxCell>
        <mxCell id="CaIP_O6BYfi-pAsgIVp_-39" value="&lt;span style=&quot;font-size: 65px;&quot;&gt;output buffer&lt;/span&gt;" style="rounded=0;whiteSpace=wrap;html=1;" vertex="1" parent="1">
          <mxGeometry x="1070" y="2060" width="1160" height="220" as="geometry" />
        </mxCell>
        <mxCell id="CaIP_O6BYfi-pAsgIVp_-40" value="&lt;span style=&quot;font-size: 65px;&quot;&gt;BN&lt;/span&gt;" style="rounded=0;whiteSpace=wrap;html=1;" vertex="1" parent="1">
          <mxGeometry x="1110" y="1350" width="1160" height="220" as="geometry" />
        </mxCell>
        <mxCell id="CaIP_O6BYfi-pAsgIVp_-42" value="&lt;span style=&quot;font-size: 65px;&quot;&gt;BN&lt;/span&gt;" style="rounded=0;whiteSpace=wrap;html=1;" vertex="1" parent="1">
          <mxGeometry x="1110" y="1640" width="1160" height="220" as="geometry" />
        </mxCell>
      </root>
    </mxGraphModel>
  </diagram>
</mxfile>
